<?xml version="1.0" standalone="no"?><!DOCTYPE svg PUBLIC "-//W3C//DTD SVG 1.1//EN" "http://www.w3.org/Graphics/SVG/1.1/DTD/svg11.dtd"><svg t="1571904872450" class="icon" viewBox="0 0 1024 1024" version="1.1" xmlns="http://www.w3.org/2000/svg" p-id="4342" xmlns:xlink="http://www.w3.org/1999/xlink" width="64" height="64"><defs><style type="text/css"></style></defs><path d="M512 1024C230.4 1024 0 793.6 0 512S230.4 0 512 0s512 230.4 512 512S793.6 1024 512 1024zM512 85.333333C277.333333 85.333333 85.333333 277.333333 85.333333 512s192 426.666667 426.666667 426.666667 426.666667-192 426.666667-426.666667S746.666667 85.333333 512 85.333333z" p-id="4343" fill="#282C34"></path><path d="M277.333333 960c-12.8 0-21.333333-4.266667-29.866667-12.8-17.066667-17.066667-17.066667-42.666667 0-59.733333l17.066667-17.066667 34.133333-102.4-29.866667-59.733333-119.466667-81.066667C136.533333 622.933333 128 610.133333 128 597.333333l0-128c0-17.066667 12.8-34.133333 29.866667-38.4l119.466667-38.4 51.2-51.2-128-179.2C187.733333 140.8 192 110.933333 209.066667 98.133333 230.4 85.333333 256 89.6 268.8 106.666667l149.333333 209.066667c12.8 17.066667 8.533333 38.4-4.266667 55.466667l-85.333333 85.333333c-4.266667 4.266667-8.533333 8.533333-17.066667 8.533333L213.333333 499.2l0 72.533333 110.933333 72.533333c4.266667 4.266667 12.8 8.533333 12.8 17.066667l42.666667 85.333333C384 759.466667 384 772.266667 379.733333 780.8l-42.666667 128c0 4.266667-4.266667 12.8-8.533333 17.066667l-21.333333 21.333333C298.666667 955.733333 285.866667 960 277.333333 960z" p-id="4344" fill="#282C34"></path><path d="M682.666667 810.666667c-8.533333 0-12.8 0-17.066667-4.266667l-85.333333-42.666667c-8.533333-4.266667-17.066667-12.8-17.066667-17.066667l-42.666667-85.333333c-4.266667-12.8-4.266667-25.6 0-38.4l38.4-76.8L558.933333 469.333333c0-25.6 17.066667-42.666667 42.666667-42.666667l64 0 115.2-153.6c0 0 4.266667-4.266667 4.266667-4.266667L853.333333 196.266667c17.066667-17.066667 42.666667-17.066667 59.733333 0s17.066667 42.666667 0 59.733333l-72.533333 72.533333-128 166.4C708.266667 507.733333 695.466667 512 682.666667 512l-42.666667 0 0 42.666667c0 8.533333 0 12.8-4.266667 17.066667L601.6 640l25.6 55.466667 46.933333 21.333333 59.733333-59.733333 38.4-81.066667c8.533333-12.8 21.333333-21.333333 34.133333-25.6 17.066667 0 29.866667 4.266667 38.4 17.066667l81.066667 119.466667 17.066667 8.533333c21.333333 8.533333 29.866667 38.4 17.066667 55.466667-8.533333 21.333333-38.4 29.866667-55.466667 17.066667l-25.6-12.8c-8.533333-4.266667-12.8-8.533333-17.066667-12.8l-42.666667-68.266667-8.533333 21.333333c0 4.266667-4.266667 8.533333-8.533333 12.8l-85.333333 85.333333C704 806.4 695.466667 810.666667 682.666667 810.666667z" p-id="4345" fill="#282C34"></path></svg>