<?xml version="1.0" standalone="no"?><!DOCTYPE svg PUBLIC "-//W3C//DTD SVG 1.1//EN" "http://www.w3.org/Graphics/SVG/1.1/DTD/svg11.dtd"><svg t="1571906731246" class="icon" viewBox="0 0 1024 1024" version="1.1" xmlns="http://www.w3.org/2000/svg" p-id="32484" xmlns:xlink="http://www.w3.org/1999/xlink" width="64" height="64"><defs><style type="text/css"></style></defs><path d="M632.896 190.592h203.776c10.688 0 19.776-13.76 19.776-31.296 0-17.6-8.64-31.296-19.776-31.296H632.96c-11.136 0-19.84 13.696-19.84 31.36 0 17.472 8.704 31.232 19.84 31.232z m222.72 592.192c0 10.752-8.96 19.2-20.288 19.2H145.984a19.584 19.584 0 0 1-20.288-19.2V209.792c0-10.752 8.896-19.2 20.288-19.2h355.648c11.328 0 20.224 8.448 20.224 19.2v51.584c0 32 27.2 57.728 60.8 57.728h252.672c11.392 0 20.352 8.448 20.352 19.2v444.48z m-2.304-516.992H587.52a20.8 20.8 0 0 1-21.312-20.544V190.08c0-34.112-28.608-61.696-64-61.696H128c-35.392 0-64 27.52-64 61.696v611.968c0 34.112 28.608 61.632 64 61.632h725.312c35.456 0 64-27.52 64-61.632V327.424c0-34.112-28.544-61.632-64-61.632z" p-id="32485" fill="#282C34"></path></svg>