<?xml version="1.0" standalone="no"?><!DOCTYPE svg PUBLIC "-//W3C//DTD SVG 1.1//EN" "http://www.w3.org/Graphics/SVG/1.1/DTD/svg11.dtd"><svg t="1571905579387" class="icon" viewBox="0 0 1024 1024" version="1.1" xmlns="http://www.w3.org/2000/svg" p-id="7906" xmlns:xlink="http://www.w3.org/1999/xlink" width="64" height="64"><defs><style type="text/css"></style></defs><path d="M510.207177 286.360248c61.620491 0 111.573808-49.953317 111.573808-111.573808 0-61.620491-49.953317-111.573808-111.573808-111.573808-61.620491 0-111.572784 49.953317-111.572784 111.573808 0 61.620491 49.953317 111.573808 111.572784 111.573808z m0-167.218904c30.682772 0 55.64612 24.962324 55.646119 55.64612 0 30.682772-24.962324 55.64612-55.646119 55.646119-30.682772 0-55.645096-24.962324-55.645096-55.646119s24.962324-55.64612 55.645096-55.64612zM174.697362 582.563105c-61.620491 0-111.573808 49.953317-111.573808 111.573808 0 61.620491 49.953317 111.573808 111.573808 111.573807S286.27117 755.757403 286.27117 694.136913c-0.001024-61.620491-49.953317-111.573808-111.573808-111.573808z m0 167.218903c-30.682772 0-55.64612-24.962324-55.64612-55.646119 0-30.682772 24.962324-55.64612 55.64612-55.64612s55.64612 24.962324 55.64612 55.64612c-0.001024 30.683795-24.963348 55.64612-55.64612 55.646119zM845.950438 582.563105c-61.620491 0-111.573808 49.953317-111.573808 111.573808 0 61.620491 49.953317 111.573808 111.573808 111.573807s111.573808-49.953317 111.573807-111.573807c0-61.620491-49.953317-111.573808-111.573807-111.573808z m0 167.218903c-30.683795 0-55.64612-24.962324-55.64612-55.646119 0-30.682772 24.962324-55.64612 55.64612-55.64612 30.682772 0 55.64612 24.962324 55.646119 55.64612s-24.963348 55.64612-55.646119 55.646119zM509.424928 879.615787c-79.713568 0-157.405987-27.895756-218.755147-78.525861l-35.610732 43.119906c71.35764 58.904123 161.694018 91.333643 254.364856 91.333643 93.463324 0 184.400723-32.934295 256.044027-92.726127l-35.82882-42.92844c-61.620491 51.408258-139.818708 79.726879-220.214184 79.726879zM853.375654 535.665062h55.927688c0-154.825796-90.704977-297.157118-231.098085-362.601821l-23.622058 50.684371c120.758059 56.310621 198.792455 178.734542 198.792455 311.91745zM364.266658 223.747612l-23.622058-50.684371c-140.379797 65.444702-231.084775 207.777049-231.084775 362.601821h55.927688c0-133.182908 78.034396-255.621162 198.779145-311.91745z" fill="#282C34" p-id="7907"></path></svg>